# xmcd
#
# Track frame offsets: 
#        150
#        27710
#        65532
#        113522
#        157040
#        186835
#        230035
#        269747
#
# Disc length: 4180 seconds
#
# Revision: 2
# Processed by: cddbd v1.5.2PL0 Copyright (c) Steve Scherf et al.
# Submitted via: ExactAudioCopyFreeDBPlugin 1.0
#
DISCID=75105208
DTITLE=Branford Marsalis Quartet - Requiem
DYEAR=1999
DGENRE=Jazz
TTITLE0=Doctone
TTITLE1=Trieste
TTITLE2=A Thousand Autumns
TTITLE3=Lykief
TTITLE4=Bullworth
TTITLE5=Elysium
TTITLE6=Cassandra
TTITLE7=16th St. Baptist Church
EXTD=YEAR: 1999
EXTT0=
EXTT1=
EXTT2=
EXTT3=
EXTT4=
EXTT5=
EXTT6=
EXTT7=
PLAYORDER=
